# xmcd CD database file
#
# Track frame offsets:
#	150
#	37496
#	69080
#	107694
#	139179
#	177089
#	207137
#	241997
#	271461
#	308763
#
# Disc length: 4603 seconds
#
# Revision: 0
# Processed by: cddbd v1.5.2PL0 Copyright (c) Steve Scherf et al.
# Submitted via: CDex 1.51
#
DISCID=8c11f90a
DTITLE=Various Artist - 900% Pure Dance [CD2)
DYEAR=1999
DGENRE=90's
TTITLE0=Blank and Jones - Cream (Paul van Dyk Mix)
TTITLE1=D.V. - The Imperial March (Larry Limit Remix)
TTITLE2=Sunbeam - Outside World (Schiller Rmx)
TTITLE3=Der Dritte Raum - Hale Bopp (Album Version)
TTITLE4=Silver Shadow - High Society (Mike Scandle Remix)
TTITLE5=Marc et Claude - Ne (Moonman's Instrumental Mix)
TTITLE6=Kay Cee - Sunshine (Take U There) (Club Tropicana Mix)
TTITLE7=Danski and DJ Delmundo - Postcard From Clitaly (present Sleepres!)
TTITLE8=Space Brothers, The - Legacy (Show Me Love) (Mash Up Matt Mix)
TTITLE9=ATB - 9 PM (Till I Come) (Matt Darey Remix)
EXTD=YEAR: 1999
EXTT0=
EXTT1=
EXTT2=
EXTT3=
EXTT4=
EXTT5=
EXTT6=
EXTT7=
EXTT8=
EXTT9=
PLAYORDER=
